<svg width="24" height="24" viewBox="0 0 24 24" xmlns="http://www.w3.org/2000/svg">
  <path fill-rule="nonzero" fill="currentColor" d="M4.352 11.105C2.92 13.253 2.203 16.835 2.203 19.821C2.203 22.567 2.92 24 5.188 24L6.86 24C7.099 22.925 8.054 22.925 8.293 24L10.561 24C12.472 24 13.189 22.567 13.189 19.821C13.189 16.835 12.472 13.253 11.039 11.105ZM2.323 0.143C2.036 0 1.678 0.215 1.678 0.573L2.036 3.653C1.104 4.585 0.531 5.803 0.531 7.165C0.531 10.317 3.755 12.895 7.696 12.895C11.636 12.895 14.86 10.317 14.86 7.165C14.86 5.803 14.286 4.585 13.355 3.653L13.713 0.573C13.749 0.215 13.355 0 13.069 0.143L10.489 1.863C9.63 1.576 8.698 1.433 7.696 1.433C6.693 1.433 5.761 1.576 4.901 1.863L2.323 0.143ZM4.543 6.735C4.901 6.735 5.546 7.093 5.546 7.522C5.546 7.952 4.901 8.31 4.543 8.31C4.185 8.31 3.898 7.952 3.898 7.522C3.898 7.093 4.185 6.735 4.543 6.735ZM10.848 6.735C11.206 6.735 11.493 7.093 11.493 7.522C11.493 7.952 11.206 8.31 10.848 8.31C10.489 8.31 9.845 7.952 9.845 7.522C9.845 7.093 10.489 6.735 10.848 6.735ZM7.696 8.597C8.197 8.597 8.626 8.812 8.626 9.17C8.626 9.457 8.197 9.672 7.696 9.672C7.194 9.672 6.764 9.457 6.764 9.17C6.764 8.812 7.194 8.597 7.696 8.597ZM11.158 23.045C15.098 23.283 17.487 20.657 18.083 17.074C18.441 14.925 18.083 12.537 17.009 10.627C16.89 10.388 16.591 10.388 16.471 10.627C15.576 12.298 15.994 14.687 15.696 16.717C15.218 19.702 13.307 21.254 11.039 21.493ZM11.755 23.881C15.696 24 19.516 22.686 21.666 19.702C22.741 18.03 23.337 16.12 23.456 14.328C23.469 14.03 23.098 13.851 22.919 14.113C22.322 15.881 21.666 17.671 20.293 19.224C18.441 21.313 15.576 22.328 11.934 22.149Z"/>
</svg>
